<svg xmlns="http://www.w3.org/2000/svg" version="1.1" xmlns:xlink="http://www.w3.org/1999/xlink" width="448.7296405281405" height="200" viewBox="-6.920000076293945 11.720000267028809 127.75999450683594 51.39999771118164"><path d="M8.56 29.48L8.56 29.48Q9.76 25.76 11.44 21.56L11.44 21.56Q11.60 21.16 12.58 19.22Q13.56 17.28 14.02 15.80Q14.48 14.32 14.28 13.24L14.28 13.24Q14.24 13 14.08 12.90Q13.92 12.80 13.62 12.90Q13.32 13 13.10 13.10Q12.88 13.20 12.40 13.48L12.40 13.48L11.84 13.76Q8.40 17.60 6.02 22.26Q3.64 26.92 1.52 33L1.52 33L1.36 33.48Q5.56 30.96 8.56 29.48ZM8.36 30.16L8.36 30.16Q5.24 31.60 1.16 34.04L1.16 34.04L0.88 34.96Q4.44 33.56 7.60 32.76L7.60 32.76Q7.92 31.52 8.36 30.16ZM0.24 34.60L-2.92 36.52L0 35.28L0.24 34.60ZM1.84 42.08L1.28 42.68L0.72 43.20L-0.20 44.08Q-0.64 44.52-1.14 44.86Q-1.64 45.20-1.84 45.12L-1.84 45.12Q-2.08 45-2.08 43.98Q-2.08 42.96-1.84 41.80L-1.84 41.80Q-1.48 39.92-0.24 36.08L-0.24 36.08Q-3.16 37.20-6.92 38.92L-6.92 38.92L-5.80 37.80L0.44 34.04Q2.68 27.60 5.26 22.70Q7.84 17.80 11.68 13.84L11.68 13.84L12.80 12.72L13.36 12.44L13.84 12.16L14.32 11.92Q14.56 11.80 14.72 11.76Q14.88 11.72 15.04 11.72Q15.20 11.72 15.28 11.82Q15.36 11.92 15.40 12.12L15.40 12.12Q15.60 13.20 15.14 14.68Q14.68 16.16 13.70 18.10Q12.72 20.04 12.56 20.44L12.56 20.44Q10.68 25.08 9.48 29.04L9.48 29.04Q11.40 28.16 13.24 27.48L13.24 27.48Q14.32 27.08 15.58 26.74Q16.84 26.40 18.40 26.04Q19.96 25.68 20.80 25.44L20.80 25.44L19.68 26.56Q18.84 26.80 17.28 27.16Q15.72 27.52 14.46 27.86Q13.20 28.20 12.12 28.60L12.12 28.60Q10.72 29.12 9.24 29.76L9.24 29.76L8.48 32.52Q12.60 31.52 16.56 31.36L16.56 31.36Q25.24 31 26.24 33.44L26.24 33.44Q27.24 35.96 21.32 41.72L21.32 41.72L21.20 41.84Q26.28 36.60 25.02 34.36Q23.76 32.12 15.44 32.48L15.44 32.48Q11.92 32.64 8.28 33.44L8.28 33.44Q7.64 36.16 7.42 38.36Q7.20 40.56 7.44 42.52Q7.68 44.48 8.78 45.58Q9.88 46.68 11.76 46.68L11.76 46.68Q14.60 46.68 17.96 44.44L17.96 44.44Q18.48 44.08 19 43.68L19 43.68L20.20 42.64Q20.88 42.08 21.20 41.84L21.20 41.84L20.20 42.84L19.16 43.76L17.92 44.76Q17.36 45.20 16.84 45.56L16.84 45.56Q13.48 47.80 10.64 47.80L10.64 47.80Q9.04 47.80 8.02 46.98Q7 46.16 6.58 44.84Q6.16 43.52 6.18 41.62Q6.20 39.72 6.50 37.80Q6.80 35.88 7.36 33.64L7.36 33.64Q4.16 34.44 0.64 35.76L0.64 35.76Q-0.40 39.04-0.72 40.68L-0.72 40.68Q-0.96 41.84-0.96 42.86Q-0.96 43.88-0.72 44L-0.72 44Q-0.48 44.04 0 43.70Q0.48 43.36 0.92 42.96L0.92 42.96L1.84 42.08ZM31.28 37.40L31.28 37.40Q33.08 35.60 33.24 35.72L33.24 35.72Q33.32 35.92 33.28 36.46Q33.24 37 33.16 37.68L33.16 37.68L33.08 38.36Q33.12 38.92 33.22 39.20Q33.32 39.48 33.54 39.60Q33.76 39.72 33.98 39.74Q34.20 39.76 34.72 39.76Q35.24 39.76 35.68 39.84L35.68 39.84L34.56 40.96Q34.12 40.92 33.60 40.90Q33.08 40.88 32.86 40.88Q32.64 40.88 32.40 40.76Q32.16 40.64 32.08 40.34Q32 40.04 31.96 39.48L31.96 39.48L32.04 38.80Q32.12 38.12 32.16 37.58Q32.20 37.04 32.12 36.84L32.12 36.84Q32 36.76 31.28 37.40ZM26.64 35.92L27.44 34.04L28.56 32.92Q28.48 33.12 28.30 33.50Q28.12 33.88 28 34.20Q27.88 34.52 27.76 34.80L27.76 34.80Q27.60 35.28 27.20 36.68L27.20 36.68Q26.56 38.96 26.64 39.56L26.64 39.56Q26.92 41.68 30.28 38.40L30.28 38.40Q27.24 41.52 26.24 41.56L26.24 41.56Q25.64 41.60 25.52 40.68L25.52 40.68Q25.44 40.08 26.08 37.80L26.08 37.80Q26.44 36.40 26.64 35.92L26.64 35.92ZM35.76 38.68L35.76 38.68Q38.20 38.24 42.60 37.12L42.60 37.12Q42.68 37.08 42.78 36.96Q42.88 36.84 42.96 36.76Q43.04 36.68 43.10 36.60Q43.16 36.52 43.16 36.48Q43.16 36.44 43.08 36.40L43.08 36.40Q40.20 35.76 35.76 38.68ZM44.56 37.48L42.44 38.04Q41.96 38.88 41.64 39.72L41.64 39.72L40.52 40.84Q40.96 39.64 41.92 38.16L41.92 38.16Q36.72 39.48 34.04 39.92L34.04 39.92L35.16 38.80Q40.80 34.52 44.20 35.28L44.20 35.28Q44.32 35.36 44.26 35.46Q44.20 35.56 43.96 35.80L43.96 35.80L43.64 36.12L43.04 37.04L45.68 36.36L44.56 37.48ZM43 62L41.88 63.12Q42.36 61.24 45.14 51.38Q47.92 41.52 49.12 36.20L49.12 36.20Q48.20 37.80 46.96 39.28L46.96 39.28L45.84 40.40Q45.04 39.72 44.86 38.48Q44.68 37.24 44.86 36.10Q45.04 34.96 44.92 33.72Q44.80 32.48 44.08 31.80L44.08 31.80Q44 32.20 43.80 34.44L43.80 34.44L42.68 35.56Q42.68 35.36 42.74 34.70Q42.80 34.04 42.84 33.76L42.84 33.76L42.96 33.04Q43.04 32.52 43.16 32.12Q43.28 31.72 43.48 31.32L43.48 31.32L44.60 30.20Q45.68 30.80 45.96 32.02Q46.24 33.24 46.04 34.46Q45.84 35.68 45.96 37.04Q46.08 38.40 46.84 39.16L46.84 39.16Q49.04 36.12 49.88 32.72L49.88 32.72L51 31.60Q50.80 32.68 50.52 33.84L50.52 33.84L50.04 36Q49.84 37 49.48 38.32L49.48 38.32L48.96 40.48L48.36 42.80L47.80 44.92L47.16 47.20Q46.68 48.88 46.54 49.34Q46.40 49.80 45.88 51.64Q45.36 53.48 45.28 53.80L45.28 53.80Q47.44 49.12 50.64 44.40L50.64 44.40L51.76 43.28Q45.52 52.56 43 62L43 62ZM51.84 38.68L51.84 38.68Q54.28 38.24 58.68 37.12L58.68 37.12Q58.76 37.08 58.86 36.96Q58.96 36.84 59.04 36.76Q59.12 36.68 59.18 36.60Q59.24 36.52 59.24 36.48Q59.24 36.44 59.16 36.40L59.16 36.40Q56.28 35.76 51.84 38.68ZM60.64 37.48L58.52 38.04Q58.04 38.88 57.72 39.72L57.72 39.72L56.60 40.84Q57.04 39.64 58.00 38.16L58.00 38.16Q52.80 39.48 50.12 39.92L50.12 39.92L51.24 38.80Q56.88 34.52 60.28 35.28L60.28 35.28Q60.40 35.36 60.34 35.46Q60.28 35.56 60.04 35.80L60.04 35.80L59.72 36.12L59.12 37.04L61.76 36.36L60.64 37.48ZM60.80 32.12L59.68 33.24Q59.48 33.20 59.30 33.16Q59.12 33.12 59.02 33.10Q58.92 33.08 58.88 33.06Q58.84 33.04 58.76 33.04L58.76 33.04L58.68 33.04Q58.64 33.04 58.48 33.08Q58.32 33.12 58.20 33.16L58.20 33.16L59.32 32.04Q61.16 30.84 63.32 29.88L63.32 29.88Q63.88 25.16 63.92 22.32L63.92 22.32Q63.48 18.44 63.48 15.80L63.48 15.80L64.60 14.68Q65.12 17.68 65.04 21.16L65.04 21.16L65.16 22.12L65 22.28Q64.92 24.84 64.36 29.40L64.36 29.40Q65.88 28.76 68.08 28L68.08 28L66.96 29.12Q65.40 29.68 64.28 30.12L64.28 30.12Q63.80 34.08 63.64 36.12L63.64 36.12Q63.64 36.40 63.56 37.18Q63.48 37.96 63.46 38.36Q63.44 38.76 63.42 39.46Q63.40 40.16 63.52 40.60Q63.64 41.04 63.82 41.58Q64.00 42.12 64.36 42.52Q64.72 42.92 65.20 43.24L65.20 43.24L64.08 44.36Q63.56 44.04 63.22 43.64Q62.88 43.24 62.68 42.70Q62.48 42.16 62.38 41.72Q62.28 41.28 62.28 40.58Q62.28 39.88 62.30 39.48Q62.32 39.08 62.40 38.30Q62.48 37.52 62.52 37.24L62.52 37.24Q62.68 35.24 63.24 30.52L63.24 30.52Q61.60 31.24 60.20 31.96L60.20 31.96Q60.48 32.04 60.80 32.12L60.80 32.12ZM80.52 41.48L80.52 41.48Q81.32 39.08 82.08 36.08L82.08 36.08Q80.64 37.68 79.84 39.48L79.84 39.48Q79.12 41.12 78.88 42.96L78.88 42.96Q78.76 44.44 79.48 44.28L79.48 44.28Q79.92 43.32 80.36 42.04L80.36 42.04Q80.28 41.92 80.52 41.48ZM85.12 36.80L85.12 36.80L84.28 37.52Q83.64 38.08 83.24 38.48Q82.84 38.88 82.48 39.28L82.48 39.28Q82.72 39.08 83.32 38.52L83.32 38.52L84.36 37.60Q84.76 37.20 85.12 36.80ZM85.12 36.80L85.12 36.80Q85.84 36 86.20 35.20L86.20 35.20Q86.40 34.84 86.36 34.32Q86.32 33.80 86 33.60L86 33.60Q85.48 33.32 83.16 35.08L83.16 35.08Q82.52 37.72 81.80 39.92L81.80 39.92Q82.12 39.64 82.48 39.28L82.48 39.28Q82.08 39.72 81.80 40.16L81.80 40.16L81.68 40.36L81.48 40.92Q81.52 40.96 81.56 40.96L81.56 40.96Q82.32 41.12 83.10 41.14Q83.88 41.16 84.74 41Q85.60 40.84 86.28 40.70Q86.96 40.56 87.92 40.24L87.92 40.24L89.44 39.68Q90 39.48 91.02 39.08Q92.04 38.68 92.40 38.52L92.40 38.52L91.28 39.64L90.12 40.12Q89.32 40.44 88.86 40.60Q88.40 40.76 87.58 41.08Q86.76 41.40 86.28 41.52Q85.80 41.64 84.96 41.88Q84.12 42.12 83.64 42.14Q83.16 42.16 82.32 42.24Q81.48 42.32 81 42.20L81 42.20Q80.68 43.12 80.32 43.80L80.32 43.80L79.20 44.92Q77.64 46.20 77.72 44.44L77.72 44.44Q77.84 42.76 78.72 40.60L78.72 40.60Q79 39.96 79.26 39.48Q79.52 39 79.92 38.48L79.92 38.48L80.48 37.76Q80.64 37.52 81.26 36.84Q81.88 36.16 82.08 35.96L82.08 35.96Q83.32 30.92 83.90 25.98Q84.48 21.04 84.08 17.96L84.08 17.96Q81.44 27.24 81.44 34.28L81.44 34.28L80.32 35.40Q80.32 27.56 83.76 16.36L83.76 16.36L84.88 15.24Q85.48 17.12 85.36 20.46Q85.24 23.80 84.68 27.46Q84.12 31.12 83.24 34.80L83.24 34.80L83.36 34.68L84.08 34.16L85 33.44Q85.32 33.20 85.80 32.88Q86.28 32.56 86.62 32.46Q86.96 32.36 87.12 32.48L87.12 32.48Q87.44 32.68 87.48 33.20Q87.52 33.72 87.32 34.08L87.32 34.08Q86.76 35.28 85.12 36.80ZM98.08 18.12L99.04 13.72L100.16 12.60L99.24 16.88L98.24 21.44Q97.92 22.88 97.26 25.62Q96.60 28.36 96.08 30.14Q95.56 31.92 94.82 34.22Q94.08 36.52 93.28 38.52L93.28 38.52L96.16 34.88L97.28 33.76Q96.96 34.56 96.76 35.16Q96.56 35.76 96.58 36.26Q96.60 36.76 96.64 37.10Q96.68 37.44 97.02 37.74Q97.36 38.04 97.60 38.22Q97.84 38.40 98.48 38.60Q99.12 38.80 99.52 38.90Q99.92 39 100.80 39.20L100.80 39.20Q101.28 39.32 101.52 39.40L101.52 39.40L100.40 40.52Q100.16 40.48 99.64 40.36L99.64 40.36L98.44 40.08Q98.08 39.96 97.46 39.76Q96.84 39.56 96.60 39.40L96.60 39.40L96 38.96Q95.64 38.72 95.58 38.42Q95.52 38.12 95.46 37.68Q95.40 37.24 95.52 36.72Q95.64 36.20 95.92 35.52L95.92 35.52L93.04 39.16L91.92 40.28Q92.76 38.24 93.54 35.88Q94.32 33.52 94.84 31.70Q95.36 29.88 96.04 27.04L96.04 27.04L97.04 22.80L98.08 18.12ZM101.60 38.68L101.60 38.68Q104.04 38.24 108.44 37.12L108.44 37.12Q108.52 37.08 108.62 36.96Q108.72 36.84 108.80 36.76Q108.88 36.68 108.94 36.60Q109 36.52 109 36.48Q109 36.44 108.92 36.40L108.92 36.40Q106.04 35.76 101.60 38.68ZM110.40 37.48L108.28 38.04Q107.80 38.88 107.48 39.72L107.48 39.72L106.36 40.84Q106.80 39.64 107.76 38.16L107.76 38.16Q102.56 39.48 99.88 39.92L99.88 39.92L101 38.80Q106.64 34.52 110.04 35.28L110.04 35.28Q110.16 35.36 110.10 35.46Q110.04 35.56 109.80 35.80L109.80 35.80L109.48 36.12L108.88 37.04L111.52 36.36L110.40 37.48ZM116.44 37.40L116.44 37.40Q118.24 35.60 118.40 35.72L118.40 35.72Q118.48 35.92 118.44 36.46Q118.40 37 118.32 37.68L118.32 37.68L118.24 38.36Q118.28 38.92 118.38 39.20Q118.48 39.48 118.70 39.60Q118.92 39.72 119.14 39.74Q119.36 39.76 119.88 39.76Q120.40 39.76 120.84 39.84L120.84 39.84L119.72 40.96Q119.28 40.92 118.76 40.90Q118.24 40.88 118.02 40.88Q117.80 40.88 117.56 40.76Q117.32 40.64 117.24 40.34Q117.16 40.04 117.12 39.48L117.12 39.48L117.20 38.80Q117.28 38.12 117.32 37.58Q117.36 37.04 117.28 36.84L117.28 36.84Q117.16 36.76 116.44 37.40ZM111.80 35.92L112.60 34.04L113.72 32.92Q113.64 33.12 113.46 33.50Q113.28 33.88 113.16 34.20Q113.04 34.52 112.92 34.80L112.92 34.80Q112.76 35.28 112.36 36.68L112.36 36.68Q111.72 38.96 111.80 39.56L111.80 39.56Q112.08 41.68 115.44 38.40L115.44 38.40Q112.40 41.52 111.40 41.56L111.40 41.56Q110.80 41.60 110.68 40.68L110.68 40.68Q110.60 40.08 111.24 37.80L111.24 37.80Q111.60 36.40 111.80 35.92L111.80 35.92Z" fill="black"></path></svg>